<svg width="17" height="16" viewBox="0 0 17 16" fill="none" xmlns="http://www.w3.org/2000/svg">
<path d="M9.19954 0.516875L11.092 4.32766C11.2236 4.5927 11.478 4.77635 11.7724 4.81879L16.0042 5.42992C16.7455 5.53705 17.0413 6.44209 16.5051 6.9614L13.4429 9.92766C13.2301 10.1339 13.1328 10.4313 13.1832 10.7224L13.906 14.911C14.0327 15.6445 13.2578 16.2038 12.5949 15.8577L8.80999 13.8804C8.54679 13.743 8.23214 13.743 7.96894 13.8804L4.18404 15.8577C3.52114 16.2042 2.74624 15.6445 2.87294 14.911L3.59569 10.7224C3.64609 10.4313 3.54879 10.1339 3.33599 9.92766L0.273837 6.9614C-0.262363 6.44174 0.0333868 5.5367 0.774687 5.42992L5.00654 4.81879C5.30089 4.77635 5.55534 4.5927 5.68694 4.32766L7.57939 0.516875C7.91049 -0.150604 8.86809 -0.150604 9.19954 0.516875Z" fill="#ED8A19"/>
</svg>
